<?xml version="1.0" standalone="no"?>
<!DOCTYPE svg PUBLIC "-//W3C//DTD SVG 20010904//EN"
 "http://www.w3.org/TR/2001/REC-SVG-20010904/DTD/svg10.dtd">
<svg version="1.0" xmlns="http://www.w3.org/2000/svg"
 width="1797.000000pt" height="980.000000pt" viewBox="0 0 1797.000000 980.000000"
 preserveAspectRatio="xMidYMid meet">

<g transform="translate(0.000000,980.000000) scale(0.100000,-0.100000)"
fill="#000000" stroke="none">
<path d="M9170 7034 c0 -8 -7 -17 -16 -21 -8 -3 -13 -12 -10 -19 3 -8 -1 -14
-11 -14 -9 0 -13 -3 -10 -7 4 -3 -14 -29 -41 -58 -73 -80 -94 -105 -143 -170
-65 -86 -103 -145 -96 -151 5 -5 55 62 87 117 27 47 49 73 56 66 4 -4 -28 -60
-72 -124 -43 -65 -83 -127 -89 -138 -6 -11 -44 -75 -84 -143 -76 -129 -153
-273 -164 -307 -4 -11 -18 -38 -31 -60 -14 -22 -28 -47 -32 -55 -4 -8 -13 -22
-21 -30 -36 -40 -83 -103 -83 -110 0 -5 -64 -72 -141 -149 -121 -121 -188
-176 -274 -226 -16 -10 -16 -12 9 -29 70 -45 177 -10 284 94 34 33 62 59 62
57 0 -2 -7 -25 -16 -51 -9 -26 -14 -50 -10 -53 6 -6 17 20 37 85 7 23 15 42
19 42 4 0 10 9 13 20 5 21 31 27 42 10 3 -5 0 -10 -8 -10 -8 0 -29 -42 -55
-112 -61 -168 -122 -358 -122 -378 0 -10 -6 -31 -14 -47 -8 -15 -20 -47 -27
-70 -12 -42 -39 -59 -39 -25 0 10 -3 13 -8 6 -4 -6 -18 -15 -32 -19 -27 -8
-66 -33 -120 -77 -48 -40 -50 -41 -93 -60 -21 -10 -42 -29 -47 -43 -6 -16 -14
-23 -25 -19 -8 3 -15 1 -15 -6 0 -6 5 -8 10 -5 6 3 10 -1 10 -10 0 -11 -5 -15
-15 -11 -9 3 -15 0 -15 -9 0 -24 16 -18 59 24 23 22 54 42 71 46 37 8 39 -7 5
-25 -26 -14 -29 -30 -6 -38 7 -2 15 5 18 17 3 12 12 21 19 21 8 0 14 4 14 9 0
5 10 13 23 17 12 3 31 14 41 23 38 31 4 -11 -38 -48 -152 -135 -226 -212 -433
-453 -32 -36 -61 -67 -65 -67 -14 -2 -3 42 12 46 8 2 22 19 30 36 8 18 27 38
43 45 15 7 28 17 28 23 1 5 2 14 3 19 0 6 14 26 29 46 23 28 25 33 8 22 -12
-7 -21 -16 -21 -20 0 -5 -7 -8 -15 -8 -8 0 -17 -11 -21 -24 -7 -29 -34 -43
-34 -18 0 9 18 37 41 62 56 63 80 96 72 104 -10 10 -25 7 -18 -4 3 -5 -1 -10
-9 -10 -9 0 -16 -4 -16 -10 0 -5 -6 -10 -14 -10 -16 0 -41 -27 -41 -47 0 -7
-11 -19 -25 -26 -14 -7 -25 -18 -25 -24 0 -10 -56 -72 -159 -176 -62 -63 -71
-52 -57 66 19 156 44 249 162 607 102 309 123 401 110 462 -11 49 -52 88 -119
115 -42 16 -46 16 -78 -2 -39 -21 -136 -120 -127 -129 4 -3 1 -6 -5 -6 -7 0
-12 -10 -12 -22 0 -13 -11 -36 -25 -53 -23 -29 -24 -29 -19 -5 l6 25 -21 -25
c-14 -17 -19 -33 -15 -49 4 -21 3 -23 -9 -12 -17 14 -30 1 -22 -21 3 -8 -1
-21 -10 -28 -13 -11 -14 -10 -8 6 6 17 5 18 -12 4 -24 -20 -95 -116 -95 -130
0 -5 -3 -10 -7 -10 -5 0 -13 -12 -20 -26 -10 -22 -10 -25 3 -20 7 3 14 2 14
-3 0 -11 -34 -41 -47 -41 -17 0 -43 -36 -41 -56 2 -10 -1 -20 -6 -21 -14 -3
-47 -63 -40 -74 3 -5 0 -17 -8 -26 -7 -9 -8 -14 -2 -10 6 3 26 32 45 63 19 31
57 89 86 129 28 41 47 75 42 77 -13 4 0 38 13 38 6 0 8 -7 4 -15 -10 -26 0
-17 45 43 54 71 65 83 49 54 -6 -13 -9 -26 -6 -30 11 -10 26 14 31 47 2 18 16
49 31 69 50 66 109 132 118 132 5 0 0 -10 -12 -23 -12 -13 -22 -31 -22 -41 0
-9 -4 -15 -8 -12 -11 7 -23 -4 -49 -41 -13 -18 -19 -34 -14 -38 5 -3 19 10 31
29 11 19 30 38 40 41 11 4 20 13 20 21 0 8 4 14 10 14 5 0 7 -8 3 -17 -6 -16
-3 -15 18 2 29 24 22 14 -66 -97 -39 -48 -72 -85 -74 -83 -2 3 16 30 40 61 62
79 77 104 43 69 -39 -40 -177 -225 -172 -230 2 -2 22 18 43 45 21 27 41 48 43
46 4 -5 -45 -83 -72 -113 -11 -13 -15 -23 -9 -23 5 0 27 26 49 57 74 109 234
302 257 309 12 4 28 14 35 23 27 32 4 -70 -60 -266 -11 -34 -17 -71 -13 -82 3
-10 1 -22 -5 -26 -6 -3 -8 -11 -4 -16 8 -14 34 9 28 26 -3 7 -1 16 5 20 6 3
11 17 11 30 0 22 16 42 26 33 2 -3 -7 -39 -21 -82 -29 -88 -31 -103 -8 -61 23
43 27 16 8 -60 -9 -36 -13 -70 -9 -77 4 -7 3 -8 -4 -4 -7 4 -19 -18 -33 -64
-11 -38 -25 -70 -30 -70 -12 0 -11 27 1 35 6 3 10 14 10 24 0 18 24 105 41
148 4 12 4 25 0 28 -11 6 -23 -24 -66 -180 -20 -71 -40 -138 -46 -147 -5 -10
-9 -30 -9 -46 0 -15 -4 -32 -9 -37 -5 -6 -11 -19 -14 -30 -2 -11 -3 -2 0 20 3
22 6 54 7 70 2 17 11 48 20 69 9 23 13 43 8 48 -6 6 -12 -4 -15 -21 -4 -20
-13 -31 -23 -31 -13 0 -14 -3 -5 -14 9 -10 8 -15 -2 -19 -15 -6 -52 -151 -43
-172 3 -8 1 -17 -4 -20 -11 -7 -13 -80 -4 -148 10 -71 88 -141 180 -161 28 -6
37 -2 75 36 42 41 168 185 236 269 102 127 172 202 258 274 91 76 94 77 88 38
-2 -16 4 -7 12 18 8 26 22 53 32 60 15 13 16 11 9 -14 -4 -19 -3 -26 4 -22 5
3 10 17 10 29 0 14 10 30 25 40 31 20 31 21 0 -78 -13 -45 -34 -114 -45 -153
-24 -84 -45 -99 -35 -25 7 55 -9 39 -19 -20 -13 -72 -44 -108 -47 -54 -1 26
-27 -49 -28 -79 0 -18 1 -18 9 3 10 24 30 30 30 8 0 -8 -13 -64 -29 -125 -28
-109 -54 -167 -70 -157 -9 6 -28 -93 -44 -229 -3 -26 70 -63 132 -67 l45 -3
16 105 c22 136 56 296 79 362 17 50 21 54 67 70 27 9 52 17 56 17 4 1 40 -41
81 -92 144 -178 240 -251 368 -278 67 -14 145 -7 197 20 39 20 112 95 112 115
0 5 11 22 25 36 35 36 77 122 65 134 -5 5 -14 -1 -21 -17 -7 -15 -16 -27 -21
-27 -4 0 -8 -6 -8 -14 0 -12 -20 -26 -36 -26 -2 0 -1 12 2 28 l7 27 -27 -32
c-15 -18 -33 -33 -38 -33 -6 0 -4 8 5 18 20 21 22 37 5 26 -8 -5 -9 -1 -4 12
4 10 3 15 -1 9 -5 -5 -19 -23 -33 -39 -14 -16 -18 -26 -10 -21 8 4 2 -6 -14
-23 -16 -18 -39 -35 -50 -38 -12 -3 -30 -14 -41 -23 -25 -22 -117 -61 -144
-61 -37 0 -51 12 -141 125 -108 135 -141 165 -220 202 -33 15 -60 31 -60 34 0
4 39 40 87 80 95 81 185 165 166 154 -7 -3 -13 -1 -13 5 0 7 7 9 16 6 17 -7
44 9 44 26 0 6 -8 4 -17 -3 -10 -8 5 11 32 41 28 30 65 73 83 95 17 22 32 35
32 29 0 -5 -27 -39 -59 -74 -32 -36 -57 -67 -54 -70 2 -3 23 15 45 40 22 25
86 95 142 155 144 155 218 257 224 310 4 38 1 44 -26 64 -45 32 -113 61 -144
61 -30 0 -72 -34 -65 -53 2 -6 -15 -27 -37 -46 -73 -61 -148 -131 -139 -131 4
0 29 19 55 43 69 62 148 120 148 109 0 -5 -32 -41 -71 -78 -39 -38 -98 -100
-130 -139 -33 -38 -68 -80 -79 -92 -16 -18 -17 -22 -4 -27 9 -3 17 1 21 12 4
9 9 19 13 22 3 3 31 37 62 75 62 78 75 91 171 164 37 28 67 45 67 38 0 -7 -14
-35 -30 -61 -17 -26 -26 -45 -20 -41 5 3 10 1 10 -4 0 -6 -5 -11 -11 -11 -5 0
-7 -5 -4 -10 4 -6 11 -7 17 -4 7 5 8 2 3 -7 -20 -32 -151 -188 -221 -263 -81
-87 -264 -256 -277 -256 -11 0 33 75 125 213 43 64 78 119 78 122 0 15 -32 1
-47 -20 -10 -14 -30 -40 -45 -58 -15 -18 -28 -37 -28 -44 0 -6 -3 -13 -8 -15
-10 -4 -122 -178 -122 -189 0 -5 -7 -9 -15 -9 -19 0 -19 10 1 59 11 28 13 48
7 66 -8 24 -11 17 -37 -62 -38 -115 -45 -93 -11 34 42 156 166 567 175 578 4
6 22 55 40 110 18 55 41 116 51 136 10 19 26 60 37 90 31 85 75 175 80 161 6
-20 22 -3 22 24 0 13 4 24 9 24 5 0 14 12 20 28 6 15 26 43 44 62 17 20 38 48
44 63 7 15 17 27 23 27 5 0 10 6 10 13 0 8 15 28 33 44 17 17 48 54 67 82 19
29 63 87 97 131 34 44 78 108 99 143 21 34 56 89 79 122 23 33 59 92 80 130
21 39 63 110 92 158 30 49 53 96 51 105 -4 20 -63 61 -97 68 -14 2 -38 9 -53
13 -22 7 -28 6 -28 -5z m7 -251 c-116 -201 -186 -305 -199 -297 -7 4 -8 3 -4
-5 8 -12 -2 -27 -122 -188 -81 -110 -115 -147 -73 -80 11 17 30 51 42 75 12
23 28 42 36 42 9 0 12 6 8 19 -3 10 1 24 10 31 8 7 15 23 15 35 0 16 6 22 18
21 12 -1 16 5 14 22 -1 15 15 48 44 88 38 53 44 67 34 79 -7 8 -8 15 -3 15 5
0 39 40 76 88 66 87 167 195 175 188 2 -3 -30 -62 -71 -133z m40 14 c-9 -14
-14 -33 -11 -43 3 -11 -7 -38 -23 -62 -18 -28 -29 -38 -31 -27 -5 23 -22 8
-22 -20 0 -14 -9 -29 -21 -35 -15 -9 -19 -18 -15 -35 3 -13 2 -27 -4 -30 -5
-3 -10 -1 -10 5 0 6 -5 8 -11 4 -6 -3 -9 -15 -6 -25 3 -11 -2 -27 -11 -37 -10
-10 -13 -12 -8 -5 15 22 -4 29 -21 8 -30 -41 -35 -55 -18 -55 9 0 13 -4 10
-10 -3 -5 -15 -10 -26 -10 -12 0 -19 -7 -19 -19 0 -10 -9 -21 -19 -24 -21 -5
-20 -2 95 168 33 50 87 134 119 187 32 54 61 95 63 93 3 -2 -2 -15 -11 -28z
m-105 -219 c-7 -7 -12 -8 -12 -2 0 14 12 26 19 19 2 -3 -1 -11 -7 -17z m-398
-347 c-40 -74 -57 -83 -33 -19 17 48 46 85 57 74 2 -3 -8 -28 -24 -55z m81
-60 c-3 -6 -11 -11 -17 -11 -6 0 -6 6 2 15 14 17 26 13 15 -4z m-166 -77 c-21
-38 -49 -71 -49 -58 0 14 51 94 60 94 5 0 0 -16 -11 -36z m113 14 c-7 -7 -12
-8 -12 -2 0 14 12 26 19 19 2 -3 -1 -11 -7 -17z m-232 -396 c0 -5 -7 -17 -16
-28 -8 -10 -14 -14 -11 -9 2 6 7 18 10 28 7 17 17 23 17 9z m-73 -177 c-7 -24
-13 -31 -19 -23 -11 18 -10 25 8 42 22 23 23 20 11 -19z m-38 -105 c-6 -16
-15 -30 -20 -30 -12 0 -11 17 1 41 17 30 30 22 19 -11z m-963 -13 c-4 -25 -28
-58 -39 -54 -7 2 -21 0 -32 -6 -19 -10 -19 -9 -3 10 13 14 15 22 7 30 -6 6 -8
16 -5 22 11 17 23 13 23 -6 0 -42 2 -46 18 -33 8 7 13 16 10 20 -7 12 6 41 15
35 5 -3 7 -11 6 -18z m892 -192 c-27 -82 -54 -154 -59 -159 -5 -6 -9 -20 -9
-32 0 -12 -7 -37 -15 -55 l-15 -34 4 30 c5 44 23 106 62 225 53 160 66 192 74
183 5 -4 -14 -75 -42 -158z m-834 -42 c-6 -34 -24 -70 -24 -49 0 14 23 86 27
86 2 0 1 -17 -3 -37z m-374 -43 c-10 -19 -30 -28 -30 -14 0 6 30 33 38 34 1 0
-2 -9 -8 -20z m390 -39 c0 -6 -4 -13 -10 -16 -5 -3 -10 1 -10 9 0 9 5 16 10
16 6 0 10 -4 10 -9z m-23 -53 c-3 -8 -6 -5 -6 6 -1 11 2 17 5 13 3 -3 4 -12 1
-19z m-444 -13 c-3 -9 -8 -14 -10 -11 -3 3 -2 9 2 15 9 16 15 13 8 -4z m437
-15 c0 -5 -2 -10 -4 -10 -3 0 -8 5 -11 10 -3 6 -1 10 4 10 6 0 11 -4 11 -10z
m1238 -32 c-30 -45 -216 -234 -279 -283 l-64 -50 30 39 c17 22 51 56 77 77 26
20 66 59 89 86 23 26 51 57 63 69 12 11 36 37 54 58 36 40 55 42 30 4z m-1757
-71 c-10 -9 -11 -8 -5 6 3 10 9 15 12 12 3 -3 0 -11 -7 -18z m1271 -7 c-2 -16
-9 -30 -14 -30 -6 0 -7 7 -4 16 3 9 6 22 6 30 0 8 4 14 8 14 5 0 7 -13 4 -30z
m-82 -44 c0 -3 -14 -15 -31 -27 -21 -15 -30 -17 -27 -8 5 16 58 47 58 35z m51
-71 c-12 -36 -25 -74 -31 -83 -8 -14 -9 -13 -10 8 0 43 45 157 58 145 2 -2 -6
-33 -17 -70z m-176 16 c-34 -21 -44 -19 -25 4 7 8 22 15 34 15 18 0 17 -2 -9
-19z m-622 -116 c-3 -9 -8 -14 -10 -11 -3 3 -2 9 2 15 9 16 15 13 8 -4z m-43
-56 c-32 -121 -45 -159 -52 -159 -11 0 1 64 13 68 5 2 9 18 9 36 0 30 27 102
36 94 2 -2 -1 -20 -6 -39z m1100 27 c0 -3 -4 -8 -10 -11 -5 -3 -10 -1 -10 4 0
6 5 11 10 11 6 0 10 -2 10 -4z m-313 -48 c-3 -7 -5 -2 -5 12 0 14 2 19 5 13 2
-7 2 -19 0 -25z m-881 -256 c-12 -11 -15 5 -8 48 l7 45 3 -44 c2 -23 1 -46 -2
-49z m765 -5 c-13 -13 -15 11 -4 40 7 16 8 15 11 -6 2 -13 -1 -28 -7 -34z
m-734 1 c-3 -8 -6 -5 -6 6 -1 11 2 17 5 13 3 -3 4 -12 1 -19z m633 -255 c0 -7
-6 -13 -14 -13 -9 0 -12 8 -8 26 3 19 7 22 13 12 5 -7 9 -19 9 -25z"/>
<path d="M9116 6737 c-16 -32 -31 -56 -34 -53 -6 7 -32 -13 -32 -24 0 -4 7
-10 15 -14 10 -3 25 14 51 59 19 36 34 71 31 77 -2 7 -16 -13 -31 -45z"/>
<path d="M9187 6743 c-4 -3 -7 -11 -7 -17 0 -6 5 -5 12 2 6 6 9 14 7 17 -3 3
-9 2 -12 -2z"/>
<path d="M4569 7022 c11 -8 7 -18 -21 -54 -20 -23 -33 -49 -31 -55 3 -7 -5
-26 -16 -42 -12 -16 -21 -37 -21 -46 0 -9 -4 -13 -10 -10 -6 4 -7 -1 -3 -11 7
-18 22 -19 -187 9 -63 9 -162 18 -220 21 -84 4 -69 1 75 -14 210 -23 300 -39
271 -50 -19 -6 -18 -7 3 -13 14 -3 20 -10 16 -17 -5 -7 -10 -8 -14 -3 -3 6
-22 8 -41 7 -19 -2 -62 2 -95 7 -97 18 -256 28 -467 29 -109 1 -199 6 -199 11
-6 44 -6 44 71 50 69 5 46 13 -26 9 -20 -1 -37 5 -45 16 -54 67 -176 153 -199
139 -5 -3 -10 -22 -10 -41 0 -19 -5 -55 -11 -80 -10 -40 -14 -44 -43 -45 -30
-2 -30 -2 -3 -6 42 -7 32 -23 -15 -24 -24 0 -65 -7 -93 -15 l-50 -13 50 4 c28
2 67 7 88 11 29 5 37 3 37 -8 0 -15 -45 -24 -165 -34 -124 -9 -152 -12 -176
-22 -15 -6 -73 -16 -130 -22 -79 -9 -108 -17 -122 -32 -18 -18 -18 -19 8 -12
15 4 45 7 68 7 23 1 45 6 49 11 4 6 12 5 22 -3 12 -10 16 -10 16 -1 0 6 6 10
13 7 6 -2 19 -1 28 4 40 20 364 68 376 55 7 -7 -10 -66 -19 -66 -5 0 -6 -9 -3
-20 9 -28 -26 -170 -108 -440 -64 -208 -226 -774 -232 -812 -10 -51 -22 -48
-23 5 -2 66 -54 227 -103 314 -30 55 -71 105 -135 169 -113 112 -208 165 -346
195 -114 25 -411 100 -418 106 -7 7 71 70 125 101 28 16 77 45 109 65 33 21
69 37 80 37 11 0 27 6 35 14 14 12 93 48 155 70 10 3 17 9 14 11 -3 3 -28 -2
-57 -12 -41 -13 -54 -14 -64 -4 -15 15 5 32 75 66 26 12 44 26 40 30 -4 4 0 5
8 3 8 -3 31 3 50 12 19 10 43 21 53 24 20 6 21 15 2 39 -12 17 -18 18 -49 7
-20 -6 -36 -15 -36 -20 0 -10 40 -7 57 3 6 4 14 3 17 -2 7 -11 -9 -18 -68 -26
-25 -4 -46 -11 -46 -15 0 -12 -66 -32 -92 -28 -20 4 -18 6 15 20 40 18 51 34
15 22 -13 -4 -30 -9 -38 -11 -8 -3 3 7 25 22 45 30 29 28 -70 -10 -33 -13 -78
-28 -100 -35 -22 -7 -77 -32 -122 -56 -89 -47 -98 -51 -87 -32 21 33 -145 -85
-205 -146 -41 -42 -43 -47 -39 -88 8 -61 43 -147 76 -187 30 -36 72 -49 227
-72 39 -6 104 -19 146 -30 41 -10 89 -19 107 -19 42 0 297 -65 348 -89 48 -23
97 -89 114 -153 7 -24 17 -61 23 -83 7 -24 12 -113 12 -223 0 -113 3 -170 8
-150 4 18 9 92 9 163 1 104 3 122 10 90 12 -50 3 -238 -17 -368 -17 -116 -75
-357 -85 -357 -3 0 8 73 26 162 18 89 35 187 38 217 l5 56 -10 -50 c-5 -27
-32 -149 -60 -270 -61 -269 -72 -322 -104 -500 -31 -166 -94 -478 -135 -661
-17 -73 -30 -143 -30 -157 0 -31 64 -91 127 -119 53 -23 73 -18 73 18 0 25 57
237 85 314 7 19 22 73 35 120 21 78 26 118 29 207 1 23 5 31 15 27 9 -3 15 5
20 27 9 49 6 57 -9 24 l-15 -30 6 35 c3 19 9 46 14 60 5 14 11 38 15 54 4 21
9 26 14 17 11 -17 13 -11 38 74 34 115 45 173 39 202 -3 16 -1 35 4 43 8 11 9
8 5 -15 -3 -16 5 -1 18 35 13 36 27 88 30 115 6 50 6 50 -6 13 -18 -55 -27
-56 -13 -1 7 26 18 47 24 46 10 -2 56 147 47 155 -2 2 -13 -25 -24 -59 -15
-48 -19 -54 -14 -24 3 22 19 80 34 129 16 49 29 97 29 106 0 10 10 24 21 32
18 11 22 25 24 74 2 82 33 214 50 214 8 0 24 33 39 83 55 183 89 304 97 347 5
25 40 137 78 250 37 113 80 243 95 290 15 47 35 105 45 130 11 25 30 79 43
120 l25 75 169 1 c111 0 234 -7 359 -21 184 -21 235 -33 235 -57 0 -7 7 -3 15
8 8 10 15 14 15 8 0 -15 -25 -36 -34 -27 -3 4 -12 -2 -20 -12 -12 -17 -16 -17
-30 -6 -9 8 -19 11 -23 7 -4 -3 2 -12 13 -20 18 -14 18 -16 1 -50 -20 -44 -14
-48 8 -5 9 17 19 29 21 26 3 -2 -27 -60 -66 -127 -38 -67 -70 -128 -70 -135 0
-8 -4 -16 -9 -19 -5 -3 -34 -59 -66 -123 -31 -65 -63 -129 -71 -143 -13 -24
-32 -65 -55 -119 -7 -17 -13 -21 -18 -13 -5 8 -13 0 -24 -23 -21 -44 -21 -51
-2 -35 12 10 15 10 15 0 0 -6 -9 -14 -19 -17 -11 -3 -29 -28 -44 -61 -39 -90
-41 -115 -2 -33 20 40 38 71 41 68 3 -3 1 -13 -5 -24 -5 -10 -22 -52 -37 -93
-23 -63 -29 -71 -34 -50 -5 20 -12 7 -39 -68 -18 -51 -30 -96 -27 -99 3 -4 6
0 6 8 0 19 48 118 49 101 1 -7 -14 -59 -33 -117 -19 -58 -45 -144 -57 -192
-26 -105 -36 -127 -82 -174 l-36 -37 40 -18 c39 -17 40 -19 34 -53 -4 -20 -13
-54 -20 -76 -7 -22 -23 -89 -35 -150 -12 -60 -28 -137 -36 -171 -7 -34 -16
-88 -20 -120 -3 -32 -13 -83 -21 -111 -8 -29 -12 -61 -9 -71 4 -10 0 -27 -8
-38 -15 -19 -15 -19 -11 1 2 11 11 72 20 135 26 183 67 384 112 558 9 34 14
65 11 67 -14 15 -99 -326 -129 -520 -20 -130 -66 -465 -72 -530 -2 -22 -4 -4
-5 40 -1 44 5 130 13 190 8 61 14 121 14 135 -2 43 -29 -130 -39 -250 -5 -63
-12 -131 -16 -151 -5 -32 -3 -39 23 -56 40 -28 89 -43 141 -43 39 0 50 5 82
38 40 43 94 147 86 168 -5 14 48 130 118 252 26 46 44 87 41 91 -2 5 2 15 11
22 9 7 68 92 132 189 106 160 166 242 232 311 14 15 33 39 43 53 11 16 26 26
37 24 10 -2 34 14 56 37 57 59 134 119 141 111 6 -5 -11 -115 -34 -220 -4 -20
-3 -27 6 -22 15 10 14 -20 -3 -68 -8 -22 -16 -33 -18 -25 -3 8 -9 10 -14 6 -5
-5 -2 -14 8 -21 17 -13 16 -24 -17 -171 -34 -151 -38 -188 -32 -307 4 -86 11
-127 22 -145 24 -36 110 -73 172 -73 57 0 55 -1 128 89 28 34 86 106 130 159
44 54 91 114 105 135 39 57 47 49 22 -23 -3 -10 -2 -12 5 -5 5 6 17 36 27 67
9 32 22 60 28 64 7 5 9 1 6 -12 -3 -10 -17 -57 -31 -104 -13 -47 -27 -112 -31
-145 -6 -55 -4 -64 23 -107 36 -56 103 -108 141 -108 15 0 36 10 47 23 29 32
118 158 165 235 22 37 72 108 110 159 38 52 76 108 84 126 22 47 48 94 61 114
7 10 33 47 58 83 25 36 55 80 66 98 22 34 44 43 35 15 -18 -58 -40 -256 -40
-363 -1 -110 2 -130 21 -166 29 -54 123 -134 157 -134 38 0 87 23 118 56 36
38 208 251 208 258 0 3 18 24 40 48 22 24 40 49 40 56 0 6 4 12 9 12 5 0 22
18 38 40 15 22 31 40 35 40 7 0 -6 -44 -28 -98 -8 -18 -14 -38 -14 -45 0 -7
-6 -23 -13 -37 -18 -35 -41 -119 -34 -126 3 -3 20 40 38 96 20 63 35 96 40 88
6 -10 9 -9 13 2 3 8 12 33 20 55 17 48 76 175 82 175 2 0 1 -13 -3 -30 -4 -20
-2 -30 7 -30 15 0 5 -49 -20 -105 -26 -56 -36 -100 -21 -91 12 8 8 -22 -10
-72 -11 -29 -11 -42 -1 -42 5 0 14 15 19 33 43 126 136 373 163 432 133 285
139 306 93 347 -19 17 -93 52 -98 46 -16 -19 -47 -97 -47 -121 -1 -53 -32 -96
-163 -230 -69 -71 -122 -134 -119 -139 5 -7 12 -4 21 8 28 39 147 154 159 154
7 0 14 6 17 13 2 6 7 9 11 6 13 -12 -27 -78 -55 -90 -16 -6 -26 -15 -23 -20 3
-5 0 -17 -6 -28 -8 -16 -7 -22 6 -29 16 -9 15 -12 -3 -38 -25 -35 -63 -70 -63
-59 0 5 6 16 14 24 17 20 31 74 17 69 -10 -3 -91 -100 -91 -108 0 -3 4 -11 9
-19 12 -19 32 -5 24 17 -6 15 -5 15 11 2 17 -13 16 -16 -13 -42 -17 -15 -31
-31 -31 -36 0 -5 -13 -21 -30 -37 -16 -16 -42 -46 -56 -67 -26 -37 -44 -48
-44 -28 0 6 11 21 25 34 14 13 25 31 25 40 0 9 6 16 14 16 12 0 66 60 66 74 0
16 -23 2 -52 -30 -18 -20 -41 -45 -50 -55 -10 -10 -18 -22 -18 -26 0 -16 -128
-143 -143 -143 -9 0 -23 -10 -31 -22 -9 -12 -19 -18 -23 -14 -5 5 -2 11 5 13
6 3 12 13 12 23 0 10 11 27 25 38 14 11 25 23 25 26 0 4 39 55 86 114 47 59
92 121 101 137 8 17 25 38 36 47 12 9 18 20 14 24 -4 4 -8 5 -10 3 -11 -13
-169 -211 -205 -257 -78 -96 -184 -202 -204 -202 -10 0 -21 7 -25 16 -7 20 14
246 27 279 4 12 13 66 19 121 7 54 17 132 23 171 16 108 1 151 -74 214 -64 53
-77 59 -75 31 1 -18 -51 -92 -65 -92 -4 0 -15 8 -25 18 -64 67 -150 90 -211
58 -32 -17 -115 -102 -162 -166 -21 -30 -5 -16 49 40 l82 85 -57 -69 c-54 -66
-167 -231 -177 -258 -2 -7 -7 -10 -11 -6 -4 3 -2 16 4 28 25 47 -10 7 -40 -45
-17 -30 -36 -55 -41 -55 -5 0 -11 -11 -15 -25 -3 -13 -12 -29 -19 -35 -10 -9
-11 -18 -4 -36 5 -14 9 -31 8 -37 0 -7 -4 -3 -8 8 -8 19 -8 19 -16 -5 -4 -14
-37 -63 -74 -109 -36 -46 -75 -96 -86 -111 -43 -59 -148 -180 -157 -180 -12 0
9 37 48 87 37 45 40 53 22 53 -7 0 -35 -29 -61 -65 -26 -35 -52 -64 -56 -62
-4 1 -38 -29 -75 -67 -80 -83 -89 -80 -104 34 -10 84 -4 157 33 395 27 170 29
180 69 320 30 104 33 161 10 194 -21 29 -109 71 -149 71 -29 -1 -93 -29 -66
-30 7 0 -15 -21 -50 -47 -64 -46 -204 -182 -196 -190 2 -2 17 1 32 7 36 14 42
7 16 -19 -12 -12 -21 -25 -21 -30 0 -5 -7 -12 -16 -15 -8 -3 -12 -10 -9 -16 3
-5 -5 -14 -19 -20 -14 -5 -26 -15 -27 -22 0 -7 -29 -53 -64 -103 -148 -208
-235 -336 -235 -347 0 -4 -5 -19 -10 -34 -10 -26 -12 -26 -28 -11 -15 16 -15
18 6 33 12 8 22 23 23 32 0 18 33 78 87 157 17 27 32 54 32 59 -1 15 -40 -33
-40 -48 0 -6 -13 -24 -30 -39 -16 -16 -30 -36 -30 -45 0 -10 -11 -27 -23 -38
-12 -12 -36 -48 -52 -80 -16 -33 -36 -70 -46 -84 -9 -14 -38 -65 -64 -115 -26
-49 -53 -97 -60 -105 -8 -9 -21 -33 -30 -53 -25 -61 -38 -36 -30 62 14 183 71
513 145 846 5 23 5 42 0 45 -19 12 -2 41 41 68 43 28 96 96 208 272 26 41 64
100 83 130 47 73 211 358 272 473 27 50 55 97 62 105 8 7 14 19 14 25 0 24 82
167 95 167 34 0 67 27 97 79 31 53 33 61 31 143 -2 81 0 91 36 170 102 222
100 300 -11 356 -46 23 -178 44 -149 24z m117 -152 c-9 -57 -46 -151 -57 -145
-5 4 -6 -1 -3 -9 8 -20 -3 -20 -22 -1 -8 8 -22 19 -31 24 -15 8 -13 13 10 52
25 42 92 119 104 119 3 0 3 -18 -1 -40z m-99 -162 c26 -25 30 -48 8 -48 -8 0
-15 4 -15 8 0 5 -11 14 -25 20 -16 7 -23 17 -19 27 8 21 24 19 51 -7z m79 -25
c-10 -10 -19 5 -10 18 6 11 8 11 12 0 2 -7 1 -15 -2 -18z m-115 -13 c24 0 48
-45 32 -61 -8 -8 -22 -8 -50 1 -44 14 -64 30 -45 37 6 3 12 12 12 20 0 10 6
13 16 9 9 -3 24 -6 35 -6z m-25 -76 c22 -9 41 -18 42 -19 2 -2 -12 -38 -32
-81 -20 -42 -35 -78 -33 -80 2 -2 20 30 41 71 20 41 39 75 42 75 6 0 -8 -54
-16 -60 -4 -3 -10 -21 -14 -40 -9 -45 -44 -90 -56 -70 -6 9 -23 -17 -57 -86
-81 -165 -224 -438 -237 -454 -7 -8 -35 -51 -62 -95 -30 -49 -50 -74 -52 -63
-2 9 13 39 33 67 20 28 32 51 26 51 -9 0 -71 -81 -71 -94 0 -3 -13 -28 -30
-54 -32 -52 -37 -68 -19 -56 7 4 10 1 7 -7 -3 -8 -11 -13 -17 -11 -6 1 -24
-18 -39 -43 -15 -25 -33 -45 -39 -45 -19 0 -16 35 7 72 11 18 20 42 20 54 0
11 9 29 20 39 11 10 20 27 20 37 0 10 10 32 21 47 12 16 18 34 14 41 -4 6 5
22 19 35 14 13 26 33 26 44 0 11 4 22 8 25 5 3 9 20 10 37 0 18 4 35 9 38 8 6
35 60 93 186 18 39 45 89 61 113 16 24 29 49 29 56 0 6 11 27 25 46 14 19 25
38 25 43 0 5 16 32 35 61 19 29 35 59 35 65 0 24 34 71 51 71 9 0 34 -7 55
-16z m-217 -123 c-29 -53 -37 -46 -9 9 12 23 24 40 27 37 3 -3 -5 -24 -18 -46z
m-1979 -11 c0 -5 -5 -10 -11 -10 -5 0 -7 5 -4 10 3 6 8 10 11 10 2 0 4 -4 4
-10z m1858 -215 c-114 -223 -229 -486 -302 -690 -32 -88 -62 -169 -66 -180 -5
-11 -14 -44 -20 -73 -7 -28 -16 -55 -21 -58 -12 -7 -13 -13 25 116 87 295 320
835 433 1006 20 30 37 54 38 54 1 0 -38 -79 -87 -175z m302 90 c0 -30 -169
-357 -187 -363 -7 -2 2 25 20 60 18 36 59 121 92 191 57 119 75 146 75 112z
m119 -41 c-11 -13 -49 -26 -49 -16 0 15 45 48 52 38 4 -6 2 -16 -3 -22z m-413
-116 c-14 -24 -26 -39 -26 -35 0 15 41 89 47 84 3 -3 -7 -25 -21 -49z m-82
-179 c-14 -28 -28 -48 -30 -46 -7 6 38 97 48 97 4 0 -4 -23 -18 -51z m-40
-108 c3 -4 -3 -16 -14 -26 -11 -10 -24 -33 -31 -52 -6 -19 -13 -32 -16 -29 -8
7 37 116 48 116 4 0 10 -4 13 -9z m-953 -117 c-5 -16 -10 -21 -10 -12 -1 18
10 51 15 45 2 -1 -1 -16 -5 -33z m858 -85 c-13 -29 -24 -48 -26 -42 -4 12 37
106 44 100 2 -3 -6 -29 -18 -58z m-905 -88 c-8 -29 -18 -51 -21 -48 -3 3 3 29
12 57 22 67 30 59 9 -9z m150 -10 c-20 -72 -29 -75 -14 -5 14 63 19 78 26 71
3 -3 -2 -33 -12 -66z m696 -51 c-7 -13 -9 -35 -6 -51 3 -16 1 -29 -4 -29 -6 0
-10 -4 -10 -9 0 -12 -41 -83 -45 -79 -4 4 51 173 60 188 13 21 17 2 5 -20z
m-921 -194 c-6 -21 -12 -36 -14 -34 -3 2 0 21 6 42 6 21 12 36 14 34 3 -2 0
-21 -6 -42z m125 -121 c-4 -8 -8 -15 -10 -15 -2 0 -4 7 -4 15 0 8 4 15 10 15
5 0 7 -7 4 -15z m2746 -71 c0 -8 -4 -12 -10 -9 -5 3 -10 10 -10 16 0 5 5 9 10
9 6 0 10 -7 10 -16z m-218 -211 c-145 -216 -230 -347 -306 -473 -121 -200
-142 -212 -85 -48 53 157 108 267 201 405 109 161 207 269 263 288 22 7 41 12
43 10 2 -2 -50 -83 -116 -182z m-1891 50 c-18 -93 -33 -143 -42 -143 -14 0
-12 6 32 174 16 58 22 36 10 -31z m699 53 c0 -3 -4 -8 -10 -11 -5 -3 -10 -1
-10 4 0 6 5 11 10 11 6 0 10 -2 10 -4z m1314 -33 c-9 -37 -13 -43 -29 -43 -15
0 -28 -27 -19 -41 3 -5 0 -9 -6 -9 -13 0 -45 -29 -45 -41 0 -4 -3 -11 -7 -15
-5 -4 -8 0 -8 9 0 10 8 25 19 36 18 18 55 82 65 114 3 9 12 17 21 17 12 0 14
-6 9 -27z m-1152 -38 c-2 -14 -9 -25 -14 -25 -6 0 -7 7 -4 16 3 9 6 22 6 30 0
9 4 13 9 10 4 -3 6 -17 3 -31z m643 -157 c-32 -61 -46 -80 -52 -74 -3 2 12 34
32 71 44 77 61 80 20 3z m319 -79 c-31 -52 -71 -114 -89 -139 -35 -50 -47 -75
-49 -105 -1 -11 -7 -20 -15 -20 -8 0 -16 -6 -19 -14 -3 -9 0 -11 8 -6 9 5 11
4 6 -4 -4 -6 -11 -9 -16 -6 -13 8 -31 -30 -24 -49 4 -10 1 -16 -9 -16 -9 0
-25 -14 -37 -31 -41 -57 -31 -21 13 47 24 38 42 74 40 80 -2 7 3 19 12 27 8 9
15 20 15 26 0 18 58 115 72 120 23 7 47 33 42 46 -3 7 1 15 9 18 8 3 32 33 52
66 21 34 40 60 42 58 2 -2 -22 -46 -53 -98z m959 86 c-3 -9 -8 -14 -10 -11 -3
3 -2 9 2 15 9 16 15 13 8 -4z m-2822 -55 c12 0 11 -41 -1 -60 -8 -12 -10 -11
-10 7 0 12 -5 23 -12 25 -7 3 -9 14 -3 34 6 21 9 24 12 12 3 -10 9 -18 14 -18z
m2909 -4 c0 -3 -4 -8 -10 -11 -5 -3 -10 -1 -10 4 0 6 5 11 10 11 6 0 10 -2 10
-4z m-2050 -115 c-18 -89 -30 -124 -30 -87 0 22 30 168 37 179 12 20 10 -4 -7
-92z m-1857 41 c-3 -12 -10 -22 -15 -22 -5 0 -7 3 -5 8 2 4 7 16 11 26 9 25
17 16 9 -12z m2577 8 c0 -5 -7 -10 -15 -10 -7 0 -18 -8 -24 -17 -5 -10 -13
-15 -17 -10 -4 4 3 16 16 27 25 22 40 26 40 10z m-1630 -140 c-4 -28 -12 -56
-18 -62 -15 -15 -16 4 -1 72 14 64 28 57 19 -10z m2600 11 c-5 -11 -15 -23
-22 -27 -7 -5 -8 -2 -3 7 21 37 44 55 25 20z m-1710 -55 c0 -3 -4 -8 -10 -11
-5 -3 -10 -1 -10 4 0 6 5 11 10 11 6 0 10 -2 10 -4z m-1656 -110 c-3 -15 -8
-25 -11 -23 -2 3 -1 17 3 31 3 15 8 25 11 23 2 -3 1 -17 -3 -31z m743 -64 c-8
-9 -18 -36 -22 -59 -4 -24 -11 -43 -17 -43 -6 0 -8 10 -5 23 4 12 9 42 12 67
10 71 13 77 31 51 14 -20 14 -24 1 -39z m-80 -124 c-3 -7 -5 -2 -5 12 0 14 2
19 5 13 2 -7 2 -19 0 -25z m-14 -99 c-5 -5 -6 11 -3 34 4 41 5 41 8 8 2 -18 0
-37 -5 -42z m-786 -231 c-3 -8 -6 -5 -6 6 -1 11 2 17 5 13 3 -3 4 -12 1 -19z"/>
<path d="M12550 6834 c-80 -38 -193 -119 -248 -178 -19 -20 -38 -36 -43 -36
-5 0 -9 -6 -9 -14 0 -8 -8 -17 -18 -20 -11 -4 -25 -18 -32 -31 -7 -14 -17 -25
-22 -25 -12 0 -258 -248 -293 -296 -16 -21 -53 -63 -82 -93 -30 -30 -61 -70
-70 -90 -9 -20 -20 -38 -23 -41 -3 -3 -16 -20 -29 -38 -16 -23 -26 -30 -35
-23 -14 12 -85 -80 -93 -121 -3 -14 -11 -29 -19 -32 -9 -3 -11 0 -7 12 6 14 4
15 -9 4 -9 -7 -14 -21 -11 -31 2 -9 -3 -23 -11 -30 -11 -9 -16 -10 -16 -2 0 6
-13 -3 -29 -21 -18 -21 -25 -35 -19 -40 6 -3 1 -8 -12 -10 -14 -2 -29 -15 -39
-35 -9 -18 -21 -33 -26 -33 -6 0 -19 -14 -29 -30 -10 -17 -28 -43 -42 -58 -13
-15 -40 -45 -59 -67 -19 -21 -35 -45 -35 -52 0 -7 -6 -13 -14 -13 -7 0 -22
-12 -32 -27 -50 -78 -288 -285 -343 -300 -60 -15 -131 131 -131 271 0 90 11
155 66 416 30 146 60 243 105 338 16 35 27 67 24 72 -5 8 100 230 154 324 15
27 47 69 71 93 55 55 50 65 -52 111 -70 31 -79 33 -105 20 -49 -23 -145 -177
-206 -333 -58 -147 -87 -245 -41 -138 39 89 43 69 5 -24 -17 -43 -45 -125 -62
-183 -112 -379 -150 -640 -115 -781 9 -36 16 -70 15 -75 -6 -21 46 -86 94
-117 66 -43 167 -83 234 -92 41 -5 67 -2 117 15 71 23 136 80 266 229 36 41
77 86 93 100 15 14 27 31 27 39 0 12 98 136 126 158 8 6 11 14 7 17 -9 9 28
48 38 41 5 -3 9 3 9 13 0 11 27 44 61 74 33 29 82 76 107 103 26 27 55 58 65
68 9 10 17 22 17 28 0 5 6 13 13 17 16 11 57 69 57 83 0 5 7 10 15 10 8 0 15
6 15 13 0 7 18 32 40 55 22 22 40 45 40 49 0 5 13 17 29 26 17 10 33 27 37 40
5 18 68 87 79 87 11 0 75 73 75 85 0 8 5 14 12 13 6 -2 21 11 32 29 12 18 25
32 30 33 4 0 31 22 60 49 145 138 221 199 324 257 78 45 112 54 112 32 0 -7 4
-63 10 -125 6 -73 5 -140 -2 -195 -5 -46 -10 -96 -10 -113 1 -16 -6 -64 -14
-105 -8 -41 -21 -115 -30 -165 -23 -130 -32 -175 -43 -220 -5 -22 -19 -78 -30
-125 -20 -86 -59 -220 -130 -450 -57 -185 -208 -553 -301 -735 -45 -88 -88
-167 -96 -176 -8 -8 -14 -19 -14 -23 0 -13 -128 -215 -213 -335 -32 -46 -61
-91 -65 -99 -16 -43 124 136 208 266 29 45 56 82 60 82 4 0 13 20 20 45 7 25
17 45 21 45 5 0 9 9 9 20 0 11 4 20 10 20 9 0 80 135 80 153 0 5 7 15 15 23 8
9 15 24 15 35 0 10 4 19 9 19 5 0 13 9 16 20 3 11 15 25 27 31 17 9 19 8 16
-8 -2 -10 -9 -17 -15 -16 -6 1 -9 -6 -6 -15 2 -10 -6 -33 -19 -52 -13 -19 -36
-64 -52 -100 -16 -36 -39 -76 -52 -91 -13 -14 -24 -33 -24 -43 0 -9 -10 -32
-23 -49 -12 -18 -28 -41 -35 -52 -7 -11 -22 -35 -33 -52 -12 -18 -24 -33 -27
-33 -4 0 -16 -20 -27 -45 -10 -24 -25 -47 -32 -49 -7 -3 -13 -10 -13 -16 0 -5
-16 -32 -35 -59 -19 -26 -35 -52 -35 -57 0 -5 -12 -23 -27 -40 -36 -40 -56
-74 -49 -82 4 -3 12 1 19 10 6 9 34 43 60 77 27 34 52 59 57 56 4 -3 11 2 14
11 4 9 9 14 12 11 9 -8 -175 -234 -245 -301 -34 -32 -65 -55 -69 -51 -4 4 14
26 41 49 26 23 47 46 47 50 0 4 14 21 30 38 35 35 32 53 -3 20 -13 -12 -30
-22 -38 -22 -15 0 -46 -30 -64 -60 -6 -12 -5 -13 6 -2 7 6 17 12 22 12 14 0
-125 -126 -200 -181 -36 -27 -69 -46 -72 -43 -3 4 -1 9 6 11 6 2 21 13 34 24
12 10 25 19 29 19 4 0 36 27 71 60 67 63 76 83 12 27 -21 -18 -51 -38 -68 -45
-27 -11 -26 -9 10 19 49 40 275 270 275 281 0 14 -19 9 -28 -8 -19 -34 -206
-216 -277 -269 -41 -31 -75 -61 -75 -67 0 -6 6 -6 15 2 17 14 31 8 20 -9 -3
-6 -25 -11 -48 -11 -31 0 -45 -5 -55 -20 -7 -11 -21 -20 -31 -20 -11 0 -23 -5
-26 -11 -11 -17 -214 -109 -269 -121 -28 -7 -54 -16 -57 -20 -3 -5 -59 -9
-124 -10 l-118 -2 -43 48 c-24 26 -58 77 -76 114 -32 64 -33 71 -32 187 0 112
3 127 37 224 35 97 85 200 129 264 11 15 18 32 16 38 -6 17 -113 -179 -147
-268 -17 -45 -39 -123 -48 -172 -10 -50 -21 -91 -25 -91 -18 0 -18 60 0 91 10
19 29 72 41 119 13 47 34 107 48 134 17 33 21 51 14 55 -24 15 83 192 203 336
36 43 66 84 66 90 -1 10 -43 -33 -93 -95 l-28 -35 18 33 c10 18 53 71 96 117
43 47 76 85 72 85 -15 0 -55 -34 -55 -46 0 -8 -4 -14 -10 -14 -5 0 -22 -14
-37 -30 -20 -23 -29 -27 -36 -18 -6 9 -7 7 -3 -6 4 -12 0 -26 -11 -36 -10 -9
-37 -40 -61 -68 -23 -28 -52 -52 -64 -54 -12 -2 -24 -10 -26 -18 -5 -13 -3
-13 11 -1 28 23 19 -5 -16 -51 -18 -24 -36 -51 -40 -60 -3 -10 -16 -18 -28
-18 -15 0 -19 -4 -15 -16 9 -24 -17 -95 -41 -111 -14 -9 -20 -20 -16 -30 4
-10 2 -14 -4 -10 -7 5 -14 -8 -18 -32 -4 -22 -13 -42 -21 -45 -8 -3 -14 -3
-14 1 0 14 24 89 32 97 4 6 8 18 8 28 0 10 7 21 15 24 8 4 15 15 15 26 0 58
-58 -61 -97 -201 -23 -78 -27 -116 -27 -206 0 -84 -2 -101 -9 -75 -5 19 -7 80
-4 135 3 72 2 93 -5 75 -5 -14 -11 -74 -11 -135 -2 -100 0 -115 24 -165 43
-90 99 -160 154 -191 197 -114 257 -133 403 -126 118 6 193 18 262 42 65 22
120 49 120 58 0 4 9 7 19 7 10 0 61 29 113 65 51 35 112 77 135 92 46 31 58
58 21 48 -22 -5 -22 -5 1 9 14 7 30 12 37 9 21 -8 27 18 8 32 -17 13 -17 14
-2 15 11 0 15 5 12 15 -4 10 5 21 25 32 17 10 31 24 31 31 0 7 30 41 66 75 68
64 108 91 65 43 -24 -25 -22 -51 1 -28 22 22 31 12 13 -14 -9 -14 -14 -28 -11
-32 3 -3 6 -1 6 4 0 15 66 84 74 77 3 -3 6 -2 6 4 0 6 20 31 45 57 26 25 48
59 52 76 3 17 17 39 30 50 13 10 25 22 25 27 1 4 14 30 30 57 22 37 26 51 17
62 -15 18 -5 30 31 37 17 4 29 10 29 14 -3 14 23 73 31 73 5 0 12 10 15 23 4
12 21 51 37 86 24 50 28 65 17 71 -9 6 -3 14 23 30 37 22 57 68 35 82 -8 5 -6
8 6 8 10 0 21 8 24 18 4 9 17 31 30 48 13 17 23 42 23 56 0 14 8 33 19 42 10
9 21 30 24 45 3 16 13 36 22 44 13 14 13 17 0 31 -18 18 -19 29 -3 24 7 -3 23
16 35 41 24 49 29 76 13 66 -5 -3 -10 -2 -10 4 0 5 8 12 18 15 21 7 38 50 48
121 3 28 11 55 16 62 5 7 18 43 28 80 10 37 30 109 44 158 28 100 31 125 15
125 -6 0 -9 -7 -6 -14 4 -10 1 -13 -9 -9 -10 4 -14 13 -10 27 3 11 6 24 6 29
0 4 5 7 11 7 5 0 7 -4 4 -10 -8 -13 6 -13 25 1 12 8 12 12 2 16 -10 4 -10 9 3
23 9 10 23 46 31 81 8 35 18 66 23 69 20 13 31 73 20 112 -8 32 -7 44 5 63 9
14 16 33 16 44 0 11 4 22 10 26 5 3 7 12 4 19 -3 7 4 37 16 66 15 39 18 55 9
60 -6 4 -8 13 -4 20 4 7 16 51 26 98 29 132 25 421 -7 501 -17 42 -95 121
-121 121 -8 0 -31 9 -53 20 -59 30 -113 26 -200 -16z m-230 -258 c0 -3 -4 -8
-10 -11 -5 -3 -10 -1 -10 4 0 6 5 11 10 11 6 0 10 -2 10 -4z m-100 -50 c0 -2
-8 -10 -17 -17 -16 -13 -17 -12 -4 4 13 16 21 21 21 13z m-20 -66 c0 -5 -4
-10 -10 -10 -5 0 -10 5 -10 10 0 6 5 10 10 10 6 0 10 -4 10 -10z m-40 -45 c-7
-8 -17 -15 -23 -15 -6 0 -2 8 9 19 22 21 33 19 14 -4z m15 -72 l-49 -48 43 53
c24 29 46 50 49 47 3 -2 -17 -26 -43 -52z m-105 -18 c-7 -8 -17 -15 -23 -15
-5 0 -2 9 8 20 21 23 35 19 15 -5z m-60 -15 c0 -5 -5 -10 -11 -10 -5 0 -7 5
-4 10 3 6 8 10 11 10 2 0 4 -4 4 -10z m55 -90 c-32 -33 -63 -60 -69 -60 -6 0
18 29 54 65 35 35 66 63 68 60 3 -2 -22 -31 -53 -65z m-70 20 c-37 -39 -45
-31 -9 9 15 17 30 29 32 26 3 -3 -7 -19 -23 -35z m-71 -175 c-16 -25 -42 -36
-28 -12 14 23 27 37 35 37 5 0 2 -11 -7 -25z m823 -27 c-3 -8 -6 -5 -6 6 -1
11 2 17 5 13 3 -3 4 -12 1 -19z m-1082 -128 c-3 -5 -11 -10 -16 -10 -6 0 -7 5
-4 10 3 6 11 10 16 10 6 0 7 -4 4 -10z m14 -35 c-18 -25 -41 -53 -53 -62 -11
-10 2 10 29 45 55 72 71 83 24 17z m1042 18 c-8 -15 -10 -15 -11 -2 0 17 10
32 18 25 2 -3 -1 -13 -7 -23z m-968 -18 c-3 -9 -8 -14 -10 -11 -3 3 -2 9 2 15
9 16 15 13 8 -4z m-123 -5 c0 -5 -4 -10 -9 -10 -5 0 -12 -8 -15 -18 -4 -10
-26 -38 -51 -63 -58 -57 -136 -155 -130 -163 3 -3 2 -4 -2 -1 -3 3 -16 -3 -27
-12 -11 -10 1 7 27 38 34 41 45 62 40 75 -5 13 -3 16 9 12 11 -5 35 17 79 72
62 76 79 91 79 70z m1098 -31 c-3 -8 -7 -3 -11 10 -4 17 -3 21 5 13 5 -5 8
-16 6 -23z m-998 2 c0 -5 -7 -14 -15 -21 -16 -14 -18 -10 -9 14 6 17 24 22 24
7z m978 -42 c-18 -11 -21 -4 -13 28 l7 28 9 -24 c7 -17 6 -27 -3 -32z m-2092
-16 c-10 -26 -18 -8 -9 23 5 21 8 24 11 11 2 -10 1 -25 -2 -34z m951 -45 c-19
-24 -51 -61 -72 -83 l-36 -40 35 48 c43 60 100 125 105 121 2 -2 -12 -23 -32
-46z m1118 -81 c-5 -17 -12 -24 -22 -20 -8 3 -11 9 -6 12 5 3 13 15 16 25 10
27 19 13 12 -17z m-1146 -47 c-29 -33 -54 -58 -57 -55 -5 5 11 26 62 83 53 57
49 34 -5 -28z m1168 -44 c-11 -43 -23 -74 -25 -68 -4 12 37 156 43 150 2 -1
-6 -39 -18 -82z m-40 32 c-3 -8 -6 -5 -6 6 -1 11 2 17 5 13 3 -3 4 -12 1 -19z
m-1239 -17 c-13 -15 -25 -27 -27 -25 -4 4 39 54 47 54 2 0 -7 -13 -20 -29z
m-48 -4 c0 -2 -10 -12 -22 -23 l-23 -19 19 23 c18 21 26 27 26 19z m-823 -69
c-3 -7 -5 -2 -5 12 0 14 2 19 5 13 2 -7 2 -19 0 -25z m907 9 c-12 -21 -37 -47
-45 -47 -5 0 1 16 12 35 12 19 25 32 30 29 5 -3 6 -11 3 -17z m1186 8 c0 -9
-6 -12 -15 -9 -8 4 -15 10 -15 15 0 5 7 9 15 9 8 0 15 -7 15 -15z m-1310 2 c0
-2 -15 -16 -32 -33 l-33 -29 29 33 c28 30 36 37 36 29z m1300 -46 c0 -21 -23
-81 -30 -81 -5 0 -7 -6 -4 -13 3 -8 -2 -14 -11 -14 -18 0 -19 9 -4 56 7 20 13
41 14 47 3 11 35 15 35 5z m-1376 -46 c-4 -8 -11 -15 -16 -15 -6 0 -5 6 2 15
7 8 14 15 16 15 2 0 1 -7 -2 -15z m1450 -19 c-3 -15 -8 -25 -11 -23 -2 3 -1
17 3 31 3 15 8 25 11 23 2 -3 1 -17 -3 -31z m-118 -77 c4 -7 0 -16 -9 -21 -9
-5 -14 -15 -11 -23 9 -22 -16 -87 -44 -115 l-25 -25 7 29 c4 16 16 41 27 55
11 14 19 37 18 51 -3 45 20 76 37 49z m35 -26 c-12 -20 -14 -14 -5 12 4 9 9
14 11 11 3 -2 0 -13 -6 -23z m-125 -220 c-5 -55 -14 -83 -28 -83 -5 0 -7 -8
-3 -19 3 -10 -3 -38 -14 -62 -11 -24 -20 -37 -20 -29 -1 13 -2 13 -11 0 -13
-20 -13 -33 1 -25 5 4 3 -10 -6 -32 -9 -21 -21 -49 -26 -63 -28 -70 -65 -140
-76 -140 -17 0 -17 -1 13 69 15 33 31 59 36 58 6 -1 13 4 16 12 3 8 0 11 -7 7
-18 -11 -13 11 14 63 31 62 65 151 65 171 0 9 9 33 20 55 11 22 20 45 20 52 0
7 2 13 5 13 2 0 3 -21 1 -47z m-25 -210 c-8 -15 -10 -15 -11 -2 0 17 10 32 18
25 2 -3 -1 -13 -7 -23z m-31 -90 c-10 -28 -16 -53 -13 -57 4 -3 1 -6 -5 -6
-17 0 -15 21 9 75 27 61 34 53 9 -12z m26 -60 c-8 -15 -15 -25 -16 -21 0 12
23 58 27 54 3 -2 -2 -17 -11 -33z m-37 -92 c-12 -28 -24 -49 -27 -46 -3 3 5
28 18 55 30 65 37 58 9 -9z m-64 -10 c-21 -43 -29 -39 -8 4 9 19 18 33 21 31
2 -2 -4 -18 -13 -35z m-32 -93 c-3 -24 -14 -52 -24 -64 -11 -11 -19 -28 -19
-37 0 -17 -18 -33 -27 -24 -4 5 66 167 73 167 1 0 0 -19 -3 -42z m31 -30 c-11
-39 -95 -202 -110 -218 -17 -17 -8 3 64 153 41 84 61 111 46 65z m-114 -147
c0 -6 -20 -39 -44 -74 -24 -36 -52 -79 -61 -97 -9 -17 -19 -30 -21 -27 -10 10
101 207 116 207 6 0 10 -4 10 -9z m-1470 -71 c0 -5 -7 -10 -16 -10 -8 0 -12 5
-9 10 3 6 10 10 16 10 5 0 9 -4 9 -10z m-100 -140 c-27 -43 -70 -125 -96 -182
-51 -113 -59 -128 -48 -83 11 46 88 207 123 258 17 25 31 49 31 53 0 5 29 32
37 34 1 0 -20 -36 -47 -80z m1488 -5 c-11 -20 -22 -34 -25 -32 -5 6 30 67 39
67 4 0 -2 -16 -14 -35z m-64 -20 c-4 -8 -11 -15 -16 -15 -6 0 -5 6 2 15 7 8
14 15 16 15 2 0 1 -7 -2 -15z m-3 -91 c-11 -15 -21 -24 -21 -20 0 12 33 57 37
52 3 -3 -4 -17 -16 -32z m-1491 -84 c-6 -12 -14 -19 -17 -17 -2 3 1 15 7 27 6
12 14 19 17 17 2 -3 -1 -15 -7 -27z m-156 -217 c-8 -96 -23 -131 -24 -53 0 51
15 130 25 130 3 0 2 -35 -1 -77z m1468 55 c-7 -7 -12 -8 -12 -2 0 14 12 26 19
19 2 -3 -1 -11 -7 -17z m18 -37 c-11 -21 -30 -37 -30 -25 0 8 30 44 37 44 2 0
-1 -9 -7 -19z m-1438 -33 c-8 -8 -9 -4 -5 13 4 13 8 18 11 10 2 -7 -1 -18 -6
-23z m868 -288 c0 -6 -20 -20 -45 -32 -33 -16 -42 -25 -34 -34 15 -19 -8 -28
-26 -10 -13 13 -11 17 19 35 18 12 38 21 43 21 6 0 16 7 23 15 15 18 20 19 20
5z m50 -9 c0 -5 -9 -11 -21 -14 -16 -4 -18 -3 -8 9 13 16 29 19 29 5z m-180
-81 c8 -5 11 -12 8 -16 -10 -9 -38 3 -38 16 0 12 10 13 30 0z m-90 -54 c0 -2
-7 -6 -15 -10 -8 -3 -15 -1 -15 4 0 6 7 10 15 10 8 0 15 -2 15 -4z"/>
<path d="M3818 6843 c18 -2 45 -2 60 0 15 2 0 4 -33 4 -33 0 -45 -2 -27 -4z"/>
<path d="M3670 6820 l-35 -7 43 -2 c27 0 41 3 37 9 -3 6 -7 9 -8 9 -1 -1 -18
-5 -37 -9z"/>
<path d="M3178 6813 c6 -2 18 -2 25 0 6 3 1 5 -13 5 -14 0 -19 -2 -12 -5z"/>
<path d="M3753 6813 c9 -2 23 -2 30 0 6 3 -1 5 -18 5 -16 0 -22 -2 -12 -5z"/>
<path d="M3823 6813 c15 -2 39 -2 55 0 15 2 2 4 -28 4 -30 0 -43 -2 -27 -4z"/>
<path d="M3970 6810 c30 -5 71 -8 90 -8 32 0 33 1 10 8 -14 4 -54 8 -90 8
l-65 -1 55 -7z"/>
<path d="M2925 6785 c-125 -24 -365 -82 -373 -90 -10 -10 23 -4 87 14 75 23
285 64 409 82 45 6 82 13 82 15 0 10 -96 0 -205 -21z"/>
<path d="M4158 6793 c7 -3 16 -2 19 1 4 3 -2 6 -13 5 -11 0 -14 -3 -6 -6z"/>
<path d="M4278 6783 c7 -3 16 -2 19 1 4 3 -2 6 -13 5 -11 0 -14 -3 -6 -6z"/>
<path d="M4323 6773 c9 -2 25 -2 35 0 9 3 1 5 -18 5 -19 0 -27 -2 -17 -5z"/>
<path d="M2922 6751 c-10 -6 -10 -10 3 -21 12 -10 15 -10 15 3 0 9 8 18 18 20
14 4 14 5 -3 6 -11 0 -26 -3 -33 -8z"/>
<path d="M3866 6727 c3 -10 9 -15 12 -12 3 3 0 11 -7 18 -10 9 -11 8 -5 -6z"/>
<path d="M3983 6733 c9 -2 23 -2 30 0 6 3 -1 5 -18 5 -16 0 -22 -2 -12 -5z"/>
<path d="M2731 6714 c-58 -15 -75 -24 -48 -24 18 0 140 30 146 36 9 9 -47 2
-98 -12z"/>
<path d="M3048 6693 c6 -2 18 -2 25 0 6 3 1 5 -13 5 -14 0 -19 -2 -12 -5z"/>
<path d="M3780 6690 c-12 -8 -11 -10 8 -10 12 0 22 5 22 10 0 13 -11 13 -30 0z"/>
<path d="M2500 6680 c-13 -9 -13 -10 0 -10 8 0 22 5 30 10 13 9 13 10 0 10 -8
0 -22 -5 -30 -10z"/>
<path d="M3230 6675 c-7 -8 -22 -15 -33 -15 -11 0 -18 -3 -15 -6 4 -3 27 -2
52 1 39 6 43 9 31 21 -17 18 -20 17 -35 -1z"/>
<path d="M3678 6683 c7 -3 16 -2 19 1 4 3 -2 6 -13 5 -11 0 -14 -3 -6 -6z"/>
<path d="M3738 6683 c7 -3 16 -2 19 1 4 3 -2 6 -13 5 -11 0 -14 -3 -6 -6z"/>
<path d="M3907 6679 c7 -7 24 -8 54 -1 l44 10 -54 1 c-40 1 -52 -2 -44 -10z"/>
<path d="M4122 6681 c-11 -6 -10 -10 4 -15 20 -8 32 0 18 14 -5 5 -15 5 -22 1z"/>
<path d="M2654 6656 c-39 -14 -42 -32 -5 -28 19 2 31 -2 34 -13 4 -9 1 -15 -8
-15 -7 0 -17 -5 -21 -12 -5 -8 -2 -9 9 -5 10 3 17 2 17 -4 0 -5 -10 -14 -22
-19 -37 -14 -21 -12 157 24 152 31 184 43 185 69 0 12 -17 8 -30 -8 -7 -8 -23
-15 -36 -15 -12 0 -26 -4 -29 -10 -3 -5 -18 -10 -33 -10 -15 0 -45 -7 -67 -15
-57 -20 -96 -19 -92 3 1 9 7 24 12 32 25 40 -3 51 -71 26z"/>
<path d="M4203 6663 c9 -2 23 -2 30 0 6 3 -1 5 -18 5 -16 0 -22 -2 -12 -5z"/>
<path d="M4250 6660 c0 -6 7 -10 15 -10 8 0 15 2 15 4 0 2 -7 6 -15 10 -8 3
-15 1 -15 -4z"/>
<path d="M2458 6633 c7 -3 16 -2 19 1 4 3 -2 6 -13 5 -11 0 -14 -3 -6 -6z"/>
<path d="M2088 6549 c-21 -11 -38 -22 -38 -24 0 -3 18 4 40 15 22 11 40 23 40
25 0 7 0 7 -42 -16z"/>
<path d="M2530 6561 c0 -5 9 -7 20 -4 11 3 20 7 20 9 0 2 -9 4 -20 4 -11 0
-20 -4 -20 -9z"/>
<path d="M2554 6534 c-17 -14 -17 -15 -1 -10 10 3 30 6 43 6 14 0 22 4 19 10
-9 15 -39 12 -61 -6z"/>
<path d="M10616 6064 c-16 -46 -26 -87 -24 -90 3 -2 17 34 32 82 15 47 26 87
24 90 -2 2 -17 -35 -32 -82z"/>
<path d="M10572 5931 c-7 -19 -12 -43 -11 -55 1 -12 7 -2 15 24 17 53 13 80
-4 31z"/>
<path d="M3902 5845 c-17 -37 -14 -45 4 -12 9 16 14 31 11 33 -2 2 -9 -7 -15
-21z"/>
<path d="M8561 5752 c-6 -12 -11 -27 -11 -34 1 -7 8 0 16 15 9 16 13 31 11 34
-3 2 -10 -4 -16 -15z"/>
<path d="M8493 5582 c-39 -99 -124 -336 -171 -477 -21 -63 -82 -291 -82 -307
0 -5 4 -7 9 -4 5 3 12 26 15 51 4 25 16 65 26 89 11 24 21 52 23 62 2 10 9 32
15 47 7 16 15 46 18 68 4 22 11 42 15 45 5 3 9 14 9 25 0 28 30 121 45 139 17
21 38 88 31 99 -4 5 1 16 10 25 22 23 67 136 66 169 0 15 4 25 9 22 13 -9 22
21 12 39 -6 10 -20 -17 -50 -92z"/>
<path d="M13570 5666 c-64 -14 -106 -35 -175 -86 -64 -48 -113 -101 -112 -121
0 -9 -14 -37 -33 -62 -18 -25 -41 -69 -51 -99 -11 -29 -17 -43 -15 -30 2 13 0
20 -6 16 -5 -3 -7 -15 -4 -27 3 -11 -2 -33 -10 -50 -10 -19 -11 -27 -4 -22 8
5 11 3 8 -6 -3 -8 -11 -13 -17 -11 -6 1 -11 -2 -11 -8 0 -5 5 -10 12 -10 6 0
8 -3 5 -7 -4 -3 -2 -12 4 -20 6 -7 7 -13 2 -13 -13 0 -6 -99 8 -116 7 -9 6
-21 -6 -45 -16 -29 -55 -135 -55 -147 0 -2 7 1 15 8 18 15 19 8 1 -49 -7 -25
-19 -47 -26 -49 -9 -3 -11 1 -7 13 4 9 10 29 13 43 4 22 3 24 -5 11 -32 -50
-58 -276 -42 -363 27 -144 88 -190 268 -203 75 -5 87 -3 135 20 80 39 151 120
234 267 21 36 43 72 50 80 13 16 65 152 60 157 -3 4 -70 -130 -80 -159 -3 -10
-10 -18 -16 -18 -5 0 -10 -6 -10 -13 0 -7 -20 -44 -45 -82 -63 -98 -56 -68 10
45 77 132 107 196 103 222 -4 23 -4 22 -17 -4 -8 -14 -19 -24 -25 -22 -7 3
-18 -7 -26 -21 -13 -24 -40 -35 -40 -15 0 5 6 9 12 7 8 -1 12 7 10 23 -5 43
17 61 83 66 104 7 275 51 308 80 12 10 28 17 35 16 8 -2 23 4 33 14 10 9 19
14 19 10 0 -4 10 0 22 8 12 9 31 16 41 16 9 0 20 7 23 15 4 8 12 15 20 15 8 0
14 7 14 15 0 8 8 15 18 15 9 0 30 7 46 15 16 9 35 14 41 11 6 -2 12 5 12 15 2
18 0 18 -20 4 -24 -17 -37 -19 -37 -6 0 8 80 45 85 39 1 -2 -17 -70 -41 -153
-24 -82 -55 -210 -69 -283 -32 -172 -33 -249 -1 -362 l7 -25 -15 25 c-21 34
-20 17 0 -23 31 -60 105 -115 198 -147 127 -43 188 3 421 325 39 53 100 137
136 187 37 50 76 110 88 133 12 24 25 45 29 47 6 3 41 52 77 109 5 9 22 34 37
57 44 65 67 70 49 11 -6 -24 -10 -28 -11 -14 -1 11 -6 2 -11 -20 -11 -57 -11
-223 1 -267 21 -74 145 -158 233 -158 60 0 90 22 215 160 181 201 333 349 389
381 29 17 53 34 53 38 0 13 -55 48 -88 55 -26 6 -40 2 -79 -25 -67 -46 -252
-232 -408 -410 -41 -46 -140 -119 -162 -119 -50 0 -45 219 9 410 16 58 33 119
37 136 5 18 11 37 15 43 4 6 4 20 1 31 -14 44 -142 81 -184 53 -17 -11 -20
-17 -11 -23 17 -11 4 -44 -14 -37 -9 4 -20 -7 -31 -29 -9 -20 -21 -32 -27 -28
-6 4 -8 3 -5 -3 4 -6 -16 -41 -43 -77 -28 -37 -89 -126 -137 -197 -47 -71 -97
-141 -110 -155 -12 -14 -23 -30 -23 -36 0 -6 -44 -65 -97 -132 -54 -66 -104
-133 -111 -148 -32 -62 -213 -228 -251 -228 -38 0 -74 181 -60 305 23 212 152
604 259 786 17 28 29 58 26 65 -6 17 -71 49 -115 58 -28 5 -37 2 -50 -16 -27
-39 -111 -212 -110 -228 0 -8 7 0 15 19 18 41 28 36 13 -7 -12 -36 -72 -67
-320 -167 -192 -78 -291 -108 -334 -102 -22 3 -36 0 -39 -9 -7 -19 -48 -14
-42 6 2 8 16 48 30 88 14 41 26 84 25 95 -1 25 0 27 -29 -70 -19 -63 -40 -103
-40 -76 0 19 66 203 73 203 4 0 16 0 27 0 11 0 20 4 20 10 0 5 -7 7 -17 3 -13
-5 -15 -2 -11 15 8 29 0 28 -12 0 -5 -13 -9 -16 -9 -8 -1 19 27 119 28 103 1
-7 6 -13 11 -13 6 0 9 3 8 8 -3 15 15 128 23 142 6 9 7 -1 3 -27 -5 -29 -3
-43 5 -43 12 0 16 165 4 197 -6 16 -8 15 -14 -7 -4 -16 -6 -7 -5 27 0 29 6 53
11 53 18 0 37 -60 39 -121 1 -67 16 -82 16 -16 0 23 3 51 6 63 3 12 0 27 -8
35 -7 8 -20 28 -28 44 -11 21 -38 41 -90 67 -87 43 -151 52 -230 34z m195 -70
c39 -39 59 -126 51 -223 -12 -157 -62 -361 -124 -505 -18 -41 -26 -48 -57 -54
-94 -17 -218 20 -279 84 -35 38 -45 103 -18 123 14 11 15 11 5 -1 -7 -8 -13
-21 -13 -29 1 -9 10 1 21 22 11 21 17 42 14 47 -3 5 9 23 28 40 19 16 40 45
47 62 8 18 29 47 48 64 40 36 37 49 -16 64 -52 14 -89 12 -120 -6 -18 -11 -22
-12 -10 -2 10 8 15 18 12 21 -9 9 49 96 69 102 9 4 17 14 17 23 0 37 228 192
281 192 11 0 31 -11 44 -24z m-395 -59 c0 -2 -17 -19 -37 -38 l-38 -34 34 38
c33 34 41 42 41 34z m-34 -110 c-37 -46 -56 -79 -56 -97 0 -6 25 22 57 64 51
69 73 89 73 69 0 -5 -16 -26 -35 -47 -19 -21 -32 -43 -28 -49 3 -6 1 -7 -5 -3
-7 4 -13 1 -14 -6 0 -7 -2 -17 -3 -23 -2 -5 -3 -16 -4 -22 0 -7 -8 -13 -16
-13 -8 0 -15 -7 -15 -15 0 -8 -4 -15 -10 -15 -5 0 -10 -13 -10 -29 0 -16 -7
-34 -16 -42 -13 -11 -14 -9 -8 17 4 16 11 39 15 52 5 13 9 29 8 35 -1 20 -48
-87 -49 -110 0 -35 -17 -36 -23 0 -3 22 2 40 14 56 11 13 17 33 14 45 -6 24 1
36 29 52 23 12 36 41 15 30 -8 -4 -4 1 9 10 12 9 22 25 22 35 0 12 5 16 14 13
8 -3 17 -1 21 5 3 6 1 11 -5 11 -20 0 -2 16 19 17 19 2 18 -2 -13 -40z m491
-179 c-3 -7 -5 -2 -5 12 0 14 2 19 5 13 2 -7 2 -19 0 -25z m-615 -138 c5 -51
-7 -73 -16 -30 -9 45 -8 70 3 70 5 0 11 -18 13 -40z m2097 -107 c-22 -32 -60
-86 -82 -120 -23 -35 -47 -63 -54 -63 -15 0 -15 2 -7 24 3 9 12 16 19 16 7 0
15 8 19 18 9 29 41 73 94 130 17 19 32 39 32 43 0 5 5 9 11 9 5 0 -9 -26 -32
-57z m623 -141 c-70 -72 -137 -144 -149 -158 -13 -15 -23 -23 -23 -17 0 19
287 320 296 311 2 -2 -54 -63 -124 -136z m-2767 19 c-8 -17 -18 -31 -21 -31
-3 0 -4 3 -2 8 21 43 32 61 35 58 3 -2 -3 -18 -12 -35z m39 -31 c-41 -118 -64
-240 -66 -348 -2 -62 -6 -112 -10 -112 -13 0 -20 129 -9 191 19 116 51 240 72
281 26 51 33 45 13 -12z m58 -2 c-7 -7 -12 -8 -12 -2 0 14 12 26 19 19 2 -3
-1 -11 -7 -17z m59 -13 c50 -27 151 -54 219 -61 56 -5 100 -11 107 -13 5 -2
-72 -161 -114 -234 -120 -209 -223 -298 -276 -239 -60 66 -64 265 -8 447 6 17
15 49 21 73 6 23 13 42 16 42 3 0 18 -7 35 -15z m-61 -9 c0 -2 -7 -17 -15 -32
-8 -16 -15 -37 -15 -46 0 -10 -5 -18 -11 -18 -5 0 -7 5 -4 10 4 6 1 18 -7 27
-10 13 -10 15 0 9 8 -5 16 2 23 23 6 17 15 31 20 31 5 0 9 -2 9 -4z m1910 -25
c0 -5 -7 -14 -15 -21 -16 -14 -18 -10 -9 14 6 17 24 22 24 7z m-1490 -45 c0
-3 -4 -8 -10 -11 -5 -3 -10 -1 -10 4 0 6 5 11 10 11 6 0 10 -2 10 -4z m-489
-73 c-8 -15 -10 -15 -11 -2 0 17 10 32 18 25 2 -3 -1 -13 -7 -23z m1899 12
c-7 -9 -15 -13 -17 -11 -7 7 7 26 19 26 6 0 6 -6 -2 -15z m-1994 -42 c-10 -10
-19 5 -10 18 6 11 8 11 12 0 2 -7 1 -15 -2 -18z m584 -13 c0 -5 -9 -14 -20
-20 -22 -12 -27 -1 -8 18 14 14 28 16 28 2z m-593 -42 c-3 -7 -5 -2 -5 12 0
14 2 19 5 13 2 -7 2 -19 0 -25z m84 -21 c-8 -8 -11 -4 -11 14 0 33 14 47 18
19 2 -12 -1 -27 -7 -33z m499 13 c0 -5 -10 -10 -22 -10 -19 0 -20 2 -8 10 19
13 30 13 30 0z m-470 -17 c-1 -18 -19 -35 -29 -28 -9 5 -7 11 6 21 21 16 23
16 23 7z m440 -12 c0 -12 -20 -25 -27 -18 -7 7 6 27 18 27 5 0 9 -4 9 -9z
m-20 -45 c0 -3 -4 -8 -10 -11 -5 -3 -10 -1 -10 4 0 6 5 11 10 11 6 0 10 -2 10
-4z"/>
<path d="M7970 5455 c-24 -13 -24 -14 -4 -15 12 0 27 7 34 15 16 19 3 19 -30
0z"/>
<path d="M3776 5444 c-4 -9 -4 -19 -1 -22 2 -3 7 3 11 12 4 9 4 19 1 22 -2 3
-7 -3 -11 -12z"/>
<path d="M13259 5443 c-13 -16 -12 -17 4 -4 9 7 17 15 17 17 0 8 -8 3 -21 -13z"/>
<path d="M10473 5385 c0 -22 2 -30 4 -17 2 12 2 30 0 40 -3 9 -5 -1 -4 -23z"/>
<path d="M8281 5354 c-12 -31 -19 -59 -17 -62 6 -5 6 -4 31 67 23 66 10 62
-14 -5z"/>
<path d="M3152 5326 c-7 -27 -11 -50 -8 -53 7 -7 28 65 24 84 -2 10 -9 -4 -16
-31z"/>
<path d="M13907 5333 c-3 -16 -8 -35 -12 -44 -4 -11 0 -18 14 -22 12 -3 22 1
25 10 9 22 7 26 -9 19 -9 -3 -15 0 -15 9 0 8 5 15 10 15 6 0 10 9 10 20 0 30
-17 24 -23 -7z"/>
<path d="M7235 5340 c-3 -5 -1 -10 4 -10 6 0 11 5 11 10 0 6 -2 10 -4 10 -3 0
-8 -4 -11 -10z"/>
<path d="M13885 5218 c-9 -49 0 -62 9 -14 4 21 13 36 24 38 14 3 13 5 -5 10
-19 5 -22 1 -28 -34z"/>
<path d="M10493 5210 c6 -16 13 -28 15 -26 6 6 -10 56 -18 56 -5 0 -3 -13 3
-30z"/>
<path d="M4458 5198 c-13 -13 -17 -18 -8 -12 8 6 24 16 35 22 11 6 15 12 8 12
-7 0 -22 -10 -35 -22z"/>
<path d="M13845 5199 c-4 -6 -5 -12 -2 -15 2 -3 7 2 10 11 7 17 1 20 -8 4z"/>
<path d="M13901 5171 c-6 -10 -7 -21 -4 -25 12 -12 18 -6 19 19 2 30 -2 31
-15 6z"/>
<path d="M4391 5150 c-13 -11 -19 -20 -14 -20 6 0 18 9 28 20 23 25 17 25 -14
0z"/>
<path d="M8206 5125 c-9 -26 -7 -32 5 -12 6 10 9 21 6 23 -2 3 -7 -2 -11 -11z"/>
<path d="M8527 5115 c-10 -14 -14 -25 -9 -25 10 0 42 33 42 43 0 14 -16 5 -33
-18z"/>
<path d="M13867 5055 c-10 -32 -16 -59 -14 -62 7 -6 39 86 35 103 -2 10 -11
-9 -21 -41z"/>
<path d="M3077 5056 c-4 -10 -7 -25 -6 -34 0 -11 4 -9 10 7 5 13 8 29 6 35 -2
5 -6 2 -10 -8z"/>
<path d="M7090 5055 c-7 -9 -8 -15 -2 -15 5 0 12 7 16 15 3 8 4 15 2 15 -2 0
-9 -7 -16 -15z"/>
<path d="M13816 5053 c-6 -14 -5 -15 5 -6 7 7 10 15 7 18 -3 3 -9 -2 -12 -12z"/>
<path d="M8422 4994 c-29 -35 -51 -64 -48 -64 7 0 88 87 99 107 21 36 -3 16
-51 -43z"/>
<path d="M4279 5033 c-13 -16 -12 -17 4 -4 16 13 21 21 13 21 -2 0 -10 -8 -17
-17z"/>
<path d="M5360 5029 c0 -5 5 -7 10 -4 6 3 10 8 10 11 0 2 -4 4 -10 4 -5 0 -10
-5 -10 -11z"/>
<path d="M8176 5015 c-9 -26 -7 -32 5 -12 6 10 9 21 6 23 -2 3 -7 -2 -11 -11z"/>
<path d="M7372 4968 c2 -12 8 -23 14 -25 17 -6 27 29 12 39 -22 13 -30 9 -26
-14z"/>
<path d="M4265 4970 c-3 -5 -1 -10 4 -10 6 0 11 5 11 10 0 6 -2 10 -4 10 -3 0
-8 -4 -11 -10z"/>
<path d="M13828 4968 c-17 -14 -41 -78 -29 -78 18 0 39 27 45 58 6 36 6 37
-16 20z"/>
<path d="M3635 4950 c-4 -12 -5 -24 -2 -27 3 -2 8 5 12 17 4 12 5 24 2 27 -3
2 -8 -5 -12 -17z"/>
<path d="M8605 4960 c-3 -5 -1 -10 4 -10 6 0 11 5 11 10 0 6 -2 10 -4 10 -3 0
-8 -4 -11 -10z"/>
<path d="M7087 4942 c-19 -20 -23 -37 -7 -27 10 6 33 45 27 45 -2 0 -11 -8
-20 -18z"/>
<path d="M13881 4944 c0 -11 3 -14 6 -6 3 7 2 16 -1 19 -3 4 -6 -2 -5 -13z"/>
<path d="M14371 4944 c0 -11 3 -14 6 -6 3 7 2 16 -1 19 -3 4 -6 -2 -5 -13z"/>
<path d="M4226 4933 c-24 -25 -80 -103 -96 -133 -7 -14 -26 -42 -42 -62 -16
-21 -28 -43 -26 -49 2 -6 20 13 39 42 20 30 57 78 82 108 26 30 47 62 47 71 0
9 5 21 12 28 7 7 10 12 7 12 -3 0 -13 -8 -23 -17z"/>
<path d="M7355 4925 c-4 -11 -11 -29 -15 -40 -22 -53 -34 -125 -22 -137 9 -9
12 -8 12 5 0 10 6 28 14 40 20 32 31 71 17 63 -6 -4 -11 -1 -11 8 0 8 6 19 13
23 9 5 11 17 7 33 -7 23 -8 24 -15 5z"/>
<path d="M8324 4863 c-23 -32 -47 -69 -54 -83 -13 -24 -12 -25 7 -7 11 9 23
14 26 10 4 -3 7 5 7 19 0 14 14 42 30 63 26 33 37 55 27 55 -2 0 -21 -26 -43
-57z"/>
<path d="M6971 4877 c-13 -21 -12 -21 5 -5 10 10 16 20 13 22 -3 3 -11 -5 -18
-17z"/>
<path d="M14351 4874 c0 -11 3 -14 6 -6 3 7 2 16 -1 19 -3 4 -6 -2 -5 -13z"/>
<path d="M6592 4854 c-15 -28 -62 -182 -62 -202 0 -9 11 7 25 36 14 30 25 60
25 68 0 8 9 33 21 56 14 26 17 44 11 50 -7 7 -13 4 -20 -8z"/>
<path d="M8497 4849 c-10 -11 -17 -25 -15 -30 2 -6 14 4 26 20 25 35 16 42
-11 10z"/>
<path d="M6939 4833 c-13 -16 -12 -17 4 -4 16 13 21 21 13 21 -2 0 -10 -8 -17
-17z"/>
<path d="M3581 4704 c-12 -64 -20 -118 -18 -121 3 -2 14 49 26 113 12 64 20
118 18 121 -3 2 -14 -49 -26 -113z"/>
<path d="M11155 4775 c-17 -13 -25 -24 -20 -24 13 0 59 38 54 44 -3 2 -18 -7
-34 -20z"/>
<path d="M6844 4777 c-28 -31 -26 -90 2 -66 17 14 19 33 3 23 -8 -4 -7 0 1 15
13 26 10 44 -6 28z"/>
<path d="M6934 4693 c-15 -27 -42 -68 -59 -93 -44 -63 -149 -247 -178 -311
-13 -30 -36 -64 -49 -75 -14 -12 -28 -28 -30 -35 -3 -8 -8 -11 -12 -8 -4 4 6
33 22 65 31 63 33 96 4 72 -8 -7 3 21 26 62 27 48 47 74 57 72 11 -2 14 6 13
33 -1 20 6 43 15 53 10 10 17 25 17 33 0 9 -8 4 -20 -11 -11 -14 -20 -20 -20
-14 0 5 5 15 12 22 6 6 9 15 5 19 -11 11 -18 -3 -21 -41 -3 -38 -32 -90 -45
-81 -5 2 -14 -9 -21 -25 -7 -17 -16 -30 -21 -30 -4 0 -16 -17 -25 -37 -10 -21
-23 -45 -30 -53 -6 -8 -33 -55 -59 -105 l-47 -90 7 79 c4 44 11 87 15 95 5 9
16 45 25 81 10 36 21 74 25 85 10 24 23 95 17 95 -5 0 -43 -106 -51 -145 -12
-51 -38 -115 -46 -110 -11 7 -21 -36 -35 -155 l-13 -105 1 105 c0 58 4 111 10
118 5 7 7 15 4 18 -3 3 3 37 14 75 22 81 24 93 6 59 -7 -14 -19 -50 -25 -80
-23 -106 -37 -145 -51 -145 -8 0 -16 6 -19 14 -3 9 0 12 11 8 11 -4 18 5 26
38 6 24 11 54 10 67 -1 19 -3 17 -11 -9 -6 -18 -14 -33 -19 -33 -4 0 4 42 17
93 34 127 34 128 44 122 5 -3 5 -17 -1 -33 -6 -15 -15 -40 -20 -55 -6 -23 -6
-27 5 -18 7 6 16 26 19 44 4 17 9 41 12 52 5 16 1 21 -14 22 -16 1 -23 -9 -36
-55 -9 -31 -22 -73 -29 -92 -25 -65 -39 -220 -26 -283 10 -48 18 -62 54 -92
51 -42 111 -68 136 -60 18 6 60 79 60 105 0 7 6 21 13 29 7 9 26 49 42 89 15
40 34 77 42 83 7 6 13 20 13 32 0 22 37 88 57 100 7 4 13 15 13 23 0 17 30 86
41 94 3 3 17 25 29 50 13 25 35 63 50 85 38 56 83 135 77 135 -3 0 -18 -21
-33 -47z m-470 -450 c-9 -54 -26 -78 -18 -28 7 49 12 65 19 65 3 0 3 -17 -1
-37z m-17 -115 c-3 -8 -6 -5 -6 6 -1 11 2 17 5 13 3 -3 4 -12 1 -19z"/>
<path d="M11145 4720 c-3 -5 -1 -10 4 -10 6 0 11 5 11 10 0 6 -2 10 -4 10 -3
0 -8 -4 -11 -10z"/>
<path d="M11020 4675 c-25 -25 -51 -45 -57 -45 -7 0 -13 -4 -13 -9 0 -4 -19
-30 -42 -57 -31 -35 -17 -25 50 36 52 47 100 89 108 93 15 8 19 27 7 27 -5 -1
-28 -21 -53 -45z"/>
<path d="M6855 4700 c-3 -5 -1 -10 4 -10 6 0 11 5 11 10 0 6 -2 10 -4 10 -3 0
-8 -4 -11 -10z"/>
<path d="M11129 4680 c-13 -10 -19 -19 -13 -20 6 0 19 9 29 20 23 26 14 26
-16 0z"/>
<path d="M6799 4681 c12 -8 13 -12 1 -25 -7 -9 -11 -19 -8 -21 3 -3 11 1 18
10 14 17 7 45 -12 45 -10 0 -9 -3 1 -9z"/>
<path d="M8077 4675 c-4 -8 -2 -17 3 -20 6 -4 10 3 10 14 0 25 -6 27 -13 6z"/>
<path d="M6495 4670 c-3 -5 -1 -10 4 -10 6 0 11 5 11 10 0 6 -2 10 -4 10 -3 0
-8 -4 -11 -10z"/>
<path d="M7768 4655 c-6 -29 -2 -31 18 -10 9 8 12 19 9 25 -11 17 -22 11 -27
-15z"/>
<path d="M11075 4670 c-3 -5 -1 -10 4 -10 6 0 11 5 11 10 0 6 -2 10 -4 10 -3
0 -8 -4 -11 -10z"/>
<path d="M6250 4659 c0 -5 5 -7 10 -4 6 3 10 8 10 11 0 2 -4 4 -10 4 -5 0 -10
-5 -10 -11z"/>
<path d="M7858 4663 c6 -2 18 -2 25 0 6 3 1 5 -13 5 -14 0 -19 -2 -12 -5z"/>
<path d="M5092 4648 c-14 -14 -16 -28 -3 -28 9 0 24 30 18 36 -2 2 -9 -2 -15
-8z"/>
<path d="M6551 4633 c-16 -34 -43 -134 -38 -139 2 -2 12 22 22 53 10 32 22 69
27 82 13 34 4 37 -11 4z"/>
<path d="M8031 4644 c0 -11 3 -14 6 -6 3 7 2 16 -1 19 -3 4 -6 -2 -5 -13z"/>
<path d="M6753 4634 c-3 -8 -2 -24 3 -35 9 -19 9 -19 22 1 10 17 10 20 -3 20
-9 0 -12 6 -9 15 4 8 3 15 0 15 -4 0 -9 -7 -13 -16z"/>
<path d="M11037 4603 c-29 -29 -45 -53 -42 -62 3 -8 -8 -29 -27 -49 -18 -19
-28 -33 -22 -31 12 4 94 96 94 106 0 3 -7 0 -15 -7 -33 -28 -12 1 33 44 26 25
42 46 36 46 -6 0 -32 -21 -57 -47z"/>
<path d="M6229 4623 c-13 -16 -12 -17 4 -4 9 7 17 15 17 17 0 8 -8 3 -21 -13z"/>
<path d="M6473 4595 c-6 -19 -8 -35 -4 -35 4 0 12 16 18 35 6 19 8 35 4 35 -4
0 -12 -16 -18 -35z"/>
<path d="M6495 4570 c-24 -73 -13 -82 12 -11 12 34 18 61 13 61 -4 0 -16 -23
-25 -50z"/>
<path d="M6846 4603 c-6 -14 -5 -15 5 -6 7 7 10 15 7 18 -3 3 -9 -2 -12 -12z"/>
<path d="M7803 4605 c-13 -7 -31 -19 -41 -28 -10 -10 -22 -14 -25 -10 -4 3 -7
-3 -7 -14 0 -11 -7 -26 -15 -33 -11 -9 -13 -16 -6 -23 7 -7 17 -5 31 8 12 11
16 21 11 25 -6 3 0 18 14 34 13 15 28 25 33 22 5 -3 15 1 22 9 17 21 10 24
-17 10z m-63 -79 c0 -2 -8 -10 -17 -17 -16 -13 -17 -12 -4 4 13 16 21 21 21
13z"/>
<path d="M7715 4590 c-3 -5 -1 -10 4 -10 6 0 11 5 11 10 0 6 -2 10 -4 10 -3 0
-8 -4 -11 -10z"/>
<path d="M5011 4554 c-21 -27 -29 -60 -12 -49 12 7 42 67 37 72 -2 2 -13 -8
-25 -23z"/>
<path d="M3546 4539 c-3 -17 -5 -43 -5 -58 1 -14 5 -2 10 28 10 58 6 83 -5 30z"/>
<path d="M6747 4489 c-4 -16 -3 -18 9 -8 7 6 11 15 8 20 -8 13 -11 11 -17 -12z"/>
<path d="M10833 4487 c-35 -39 -37 -53 -3 -19 18 18 31 35 28 37 -2 3 -14 -5
-25 -18z"/>
<path d="M4960 4479 c0 -18 2 -19 15 -9 15 12 12 30 -6 30 -5 0 -9 -10 -9 -21z"/>
<path d="M6465 4470 c-4 -12 -5 -24 -2 -27 3 -2 8 5 12 17 4 12 5 24 2 27 -3
2 -8 -5 -12 -17z"/>
<path d="M3532 4425 c0 -16 2 -22 5 -12 2 9 2 23 0 30 -3 6 -5 -1 -5 -18z"/>
<path d="M6728 4405 c-6 -14 -22 -32 -35 -40 -26 -17 -30 -32 -10 -32 8 0 26
22 41 49 15 26 25 48 21 48 -3 0 -11 -11 -17 -25z"/>
<path d="M6686 4403 c-6 -14 -5 -15 5 -6 7 7 10 15 7 18 -3 3 -9 -2 -12 -12z"/>
<path d="M10707 4333 c-70 -88 -168 -243 -153 -243 5 0 43 61 64 103 8 15 18
27 23 27 5 0 9 6 9 13 0 7 15 31 33 53 47 56 89 114 83 114 -3 0 -29 -30 -59
-67z"/>
<path d="M5072 4360 c0 -19 2 -27 5 -17 2 9 2 25 0 35 -3 9 -5 1 -5 -18z"/>
<path d="M6461 4334 c0 -11 3 -14 6 -6 3 7 2 16 -1 19 -3 4 -6 -2 -5 -13z"/>
<path d="M7926 4243 c-4 -16 -9 -37 -13 -48 -3 -14 -2 -17 5 -10 11 11 28 85
19 85 -3 0 -8 -12 -11 -27z"/>
<path d="M6647 4253 c-4 -3 -7 -11 -7 -17 0 -6 5 -5 12 2 6 6 9 14 7 17 -3 3
-9 2 -12 -2z"/>
<path d="M10576 4191 c-10 -11 -16 -25 -15 -30 2 -6 12 3 21 19 20 35 18 38
-6 11z"/>
<path d="M10527 4103 c-4 -3 -7 -11 -7 -17 0 -6 5 -5 12 2 6 6 9 14 7 17 -3 3
-9 2 -12 -2z"/>
<path d="M6888 2760 c-46 -14 -85 -48 -102 -90 -13 -33 -16 -83 -16 -288 0
-237 1 -250 23 -292 59 -119 268 -122 335 -5 22 39 22 45 20 310 -3 267 -3
270 -27 304 -43 59 -147 87 -233 61z m132 -126 c12 -12 16 -52 18 -212 4 -237
0 -277 -34 -298 -31 -21 -89 -11 -105 17 -11 21 -14 456 -2 485 13 35 91 41
123 8z"/>
<path d="M8355 2755 c-47 -17 -81 -55 -96 -108 -6 -24 -9 -134 -7 -285 3 -283
7 -296 88 -340 39 -20 55 -23 117 -19 60 3 78 9 109 32 62 48 65 64 62 363 -3
264 -3 267 -27 301 -46 64 -154 89 -246 56z m145 -121 c13 -12 15 -53 15 -250
l0 -236 -25 -20 c-29 -24 -87 -19 -107 9 -14 19 -19 469 -5 489 24 35 90 40
122 8z"/>
<path d="M9900 2748 c-89 -46 -99 -83 -99 -358 0 -271 9 -309 82 -364 29 -22
114 -32 172 -22 52 10 110 66 124 121 14 56 15 467 0 518 -30 111 -167 162
-279 105z m144 -109 l26 -20 0 -234 0 -234 -26 -20 c-35 -28 -69 -26 -99 4
l-25 24 0 226 0 226 25 24 c30 30 64 32 99 4z"/>
<path d="M6380 2386 l0 -374 48 -4 c26 -3 50 -3 55 -1 4 2 7 74 7 159 l0 154
95 0 95 0 0 55 0 55 -95 0 -95 0 0 110 0 109 108 3 107 3 3 53 3 52 -165 0
-166 0 0 -374z"/>
<path d="M7250 2385 l0 -375 25 -1 c14 -1 37 -2 53 -3 l27 -1 3 155 c1 85 7
159 12 164 4 4 19 6 32 3 25 -7 29 -16 93 -229 l26 -88 60 0 c32 0 59 3 59 7
0 4 -23 78 -52 164 l-52 157 32 30 c44 42 52 69 52 185 0 174 -39 206 -247
207 l-123 0 0 -375z m250 235 c6 -10 10 -45 10 -78 0 -89 -22 -108 -117 -104
l-33 2 0 104 0 105 38 3 c48 4 90 -9 102 -32z"/>
<path d="M7830 2750 c0 -5 32 -106 70 -224 l70 -213 0 -151 0 -150 45 -4 c24
-2 49 -2 55 0 6 2 10 58 10 146 l0 142 70 224 c39 123 70 228 70 233 0 4 -25
7 -57 5 l-56 -3 -38 -143 c-20 -79 -39 -145 -42 -148 -2 -3 -14 32 -26 78 -13
46 -30 112 -40 148 l-18 65 -56 3 c-35 2 -57 -1 -57 -8z"/>
<path d="M8722 2438 c3 -358 4 -362 70 -410 28 -19 45 -23 108 -23 63 0 80 4
108 23 66 48 67 52 70 410 l3 322 -60 0 -61 0 -2 -312 -3 -312 -27 -16 c-25
-13 -31 -13 -55 0 l-28 16 -3 312 -2 312 -61 0 -60 0 3 -322z"/>
<path d="M9170 2386 c0 -419 -8 -378 70 -380 l35 -1 5 160 5 160 30 0 c29 0
30 0 76 -154 35 -116 51 -156 65 -162 17 -6 94 -2 102 6 2 2 -20 76 -49 164
l-53 161 31 32 c47 51 53 69 53 173 0 113 -13 148 -67 185 -34 23 -47 25 -170
28 l-133 4 0 -376z m241 248 c7 -9 15 -46 17 -83 5 -82 -13 -111 -73 -116 -74
-8 -75 -6 -75 111 l0 104 59 0 c42 0 62 -5 72 -16z"/>
<path d="M10280 2387 l0 -375 43 -4 c80 -8 77 -15 77 163 l0 159 30 0 c28 0
30 -3 55 -87 15 -49 37 -119 49 -158 l23 -70 57 -5 c32 -3 59 -3 61 0 2 3 -20
79 -50 169 l-54 163 35 30 c44 39 57 90 52 201 -4 93 -16 120 -72 161 -24 18
-45 21 -167 24 l-139 4 0 -375z m242 246 c14 -13 18 -31 18 -89 0 -72 -13
-103 -43 -105 -7 0 -23 -2 -37 -4 -57 -8 -60 -3 -60 111 l0 104 52 0 c34 0 58
-6 70 -17z"/>
<path d="M10770 2385 l0 -375 123 0 c148 0 180 12 215 80 21 42 22 55 22 295
0 240 -1 253 -22 295 -35 68 -67 80 -215 80 l-123 0 0 -375z m228 253 c18 -18
17 -491 -1 -506 -13 -11 -45 -16 -89 -14 l-28 2 0 265 0 265 53 0 c29 0 58 -5
65 -12z"/>
<path d="M11220 2385 l0 -375 171 0 170 0 -3 53 -3 52 -108 3 -108 3 3 102 3
102 93 3 92 3 0 54 0 55 -95 0 -95 0 0 105 0 104 108 3 107 3 3 53 3 52 -170
0 -171 0 0 -375z"/>
<path d="M11630 2386 l0 -374 38 -4 c75 -7 71 -14 74 160 l3 157 30 0 c29 0
29 0 76 -155 l46 -155 61 -3 c34 -2 62 0 62 5 0 4 -23 78 -52 164 l-52 157 37
41 c46 51 50 67 45 190 -3 95 -4 101 -33 132 -47 50 -80 59 -215 59 l-120 0 0
-374z m240 244 c16 -16 20 -33 20 -84 0 -82 -18 -107 -80 -110 -71 -4 -70 -5
-70 110 l0 104 55 0 c42 0 60 -5 75 -20z"/>
</g>
</svg>
